<?xml version="1.0" encoding="UTF-8" standalone="no"?>
<!DOCTYPE svg PUBLIC "-//W3C//DTD SVG 1.1//EN" "http://www.w3.org/Graphics/SVG/1.1/DTD/svg11.dtd">
<svg width="100%" height="100%" viewBox="0 0 350 371" version="1.1" xmlns="http://www.w3.org/2000/svg" xmlns:xlink="http://www.w3.org/1999/xlink" xml:space="preserve" xmlns:serif="http://www.serif.com/" style="fill-rule:evenodd;clip-rule:evenodd;">
    <g transform="matrix(1,0,0,1,0.39463,0)">
        <g transform="matrix(1,0,0,1,-5,12)">
            <rect id="a1tk9piYov" x="16.646" y="76.666" width="85.482" height="103.422" style="fill:rgb(235,64,64);fill-rule:nonzero;"/>
            <rect id="a1tk9piYov1" serif:id="a1tk9piYov" x="16.646" y="76.666" width="85.482" height="103.422" style="fill-opacity:0;fill-rule:nonzero;stroke:rgb(16,14,13);stroke-width:8.17px;"/>
        </g>
        <g transform="matrix(1,0,0,1,-5,12)">
            <path id="a1jBlqmw2i" d="M227.624,76.699L225.876,76.797L224.144,76.976L222.445,77.222L220.762,77.532L219.112,77.908L217.478,78.349L215.877,78.839L214.292,79.395L212.74,80.015L211.22,80.702L209.733,81.437L208.279,82.221L206.874,83.071L205.485,83.953L204.146,84.901L202.839,85.897L201.564,86.943L200.339,88.038L199.162,89.181L198.019,90.358L196.924,91.583L195.878,92.857L194.882,94.164L193.934,95.504L193.052,96.893L192.202,98.298L191.418,99.752L190.683,101.239L189.997,102.758L189.376,104.311L188.82,105.895L188.314,107.497L187.889,109.13L187.513,110.781L187.203,112.463L186.958,114.179L186.778,115.894L186.68,117.643L186.647,119.407L186.647,180.088L102.129,180.088L102.129,46.93L102.161,45.247L102.26,43.581L102.423,41.947L102.652,40.329L102.946,38.728L103.305,37.144L103.714,35.591L104.204,34.056L104.727,32.552L105.315,31.082L105.968,29.628L106.671,28.223L107.422,26.834L108.223,25.478L109.073,24.171L109.971,22.88L110.935,21.638L111.915,20.429L112.961,19.269L114.039,18.142L115.167,17.047L116.343,16.018L117.552,15.021L118.794,14.074L120.068,13.159L121.392,12.309L122.748,11.509L124.12,10.757L125.542,10.054L126.996,9.417L128.466,8.813L129.969,8.29L131.505,7.816L133.057,7.391L134.626,7.032L136.227,6.738L137.861,6.509L139.495,6.346L141.161,6.248L142.844,6.215L297.879,6.215L297.977,6.231L298.059,6.231L298.14,6.248L298.222,6.28L298.385,6.313L298.467,6.346L298.532,6.378L298.614,6.411L298.679,6.444L298.761,6.493L298.826,6.525L299.153,6.77L299.202,6.836L299.268,6.885L299.562,7.277L299.594,7.359L299.627,7.424L299.725,7.669L299.741,7.734L299.774,7.816L299.807,7.98L299.823,8.078L299.823,76.666L229.388,76.666L227.624,76.699Z" style="fill:rgb(235,64,64);fill-rule:nonzero;"/>
            <path id="a1jBlqmw2i1" serif:id="a1jBlqmw2i" d="M227.624,76.699L225.876,76.797L224.144,76.976L222.445,77.222L220.762,77.532L219.112,77.908L217.478,78.349L215.877,78.839L214.292,79.395L212.74,80.015L211.22,80.702L209.733,81.437L208.279,82.221L206.874,83.071L205.485,83.953L204.146,84.901L202.839,85.897L201.564,86.943L200.339,88.038L199.162,89.181L198.019,90.358L196.924,91.583L195.878,92.857L194.882,94.164L193.934,95.504L193.052,96.893L192.202,98.298L191.418,99.752L190.683,101.239L189.997,102.758L189.376,104.311L188.82,105.895L188.314,107.497L187.889,109.13L187.513,110.781L187.203,112.463L186.958,114.179L186.778,115.894L186.68,117.643L186.647,119.407L186.647,180.088L102.129,180.088L102.129,46.93L102.161,45.247L102.26,43.581L102.423,41.947L102.652,40.329L102.946,38.728L103.305,37.144L103.714,35.591L104.204,34.056L104.727,32.552L105.315,31.082L105.968,29.628L106.671,28.223L107.422,26.834L108.223,25.478L109.073,24.171L109.971,22.88L110.935,21.638L111.915,20.429L112.961,19.269L114.039,18.142L115.167,17.047L116.343,16.018L117.552,15.021L118.794,14.074L120.068,13.159L121.392,12.309L122.748,11.509L124.12,10.757L125.542,10.054L126.996,9.417L128.466,8.813L129.969,8.29L131.505,7.816L133.057,7.391L134.626,7.032L136.227,6.738L137.861,6.509L139.495,6.346L141.161,6.248L142.844,6.215L297.879,6.215L297.977,6.231L298.059,6.231L298.14,6.248L298.222,6.28L298.385,6.313L298.467,6.346L298.532,6.378L298.614,6.411L298.679,6.444L298.761,6.493L298.826,6.525L299.153,6.77L299.202,6.836L299.268,6.885L299.562,7.277L299.594,7.359L299.627,7.424L299.725,7.669L299.741,7.734L299.774,7.816L299.807,7.98L299.823,8.078L299.823,76.666L229.388,76.666L227.624,76.699Z" style="fill-opacity:0;fill-rule:nonzero;stroke:rgb(16,14,13);stroke-width:8.17px;"/>
        </g>
        <g transform="matrix(1,0,0,1,-5,12)">
            <path id="g3VDU2e0g" d="M59.388,250.539L59.388,119.407C59.388,95.798 40.239,76.666 16.646,76.666L16.646,250.539L59.388,250.539Z" style="fill:rgb(235,64,64);fill-rule:nonzero;"/>
            <path id="g3VDU2e0g1" serif:id="g3VDU2e0g" d="M59.388,250.539L59.388,119.407C59.388,95.798 40.239,76.666 16.646,76.666L16.646,250.539L59.388,250.539Z" style="fill-opacity:0;fill-rule:nonzero;stroke:rgb(16,14,13);stroke-width:8.17px;"/>
        </g>
        <g transform="matrix(1,0,0,1,-5,12)">
            <rect id="ajxvThEyI" x="59.388" y="180.088" width="127.26" height="70.451" style="fill:rgb(235,64,64);fill-rule:nonzero;"/>
            <rect id="ajxvThEyI1" serif:id="ajxvThEyI" x="59.388" y="180.088" width="127.26" height="70.451" style="fill-opacity:0;fill-rule:nonzero;stroke:rgb(16,14,13);stroke-width:8.17px;"/>
        </g>
        <g transform="matrix(1,0,0,1,-5,12)">
            <path id="b1HOjObmhl" d="M229.388,250.539L229.388,76.666C205.779,76.666 186.647,95.798 186.647,119.407L186.647,250.539L229.388,250.539Z" style="fill:rgb(235,64,64);fill-rule:nonzero;"/>
            <path id="b1HOjObmhl1" serif:id="b1HOjObmhl" d="M229.388,250.539L229.388,76.666C205.779,76.666 186.647,95.798 186.647,119.407L186.647,250.539L229.388,250.539Z" style="fill-opacity:0;fill-rule:nonzero;stroke:rgb(16,14,13);stroke-width:8.17px;"/>
        </g>
        <g transform="matrix(1,0,0,1,-5,12)">
            <path id="b3jIfqstCI" d="M299.823,6.215L306.097,6.215L307.6,6.248L309.087,6.329L310.557,6.476L312.012,6.689L313.449,6.95L314.854,7.277L316.26,7.653L317.616,8.078L318.972,8.551L320.295,9.074L321.586,9.662L322.86,10.283L324.102,10.953L325.311,11.672L326.487,12.44L327.631,13.257L328.758,14.106L329.837,14.989L330.882,15.92L331.879,16.9L332.859,17.897L333.791,18.943L334.689,20.037L335.539,21.148L336.339,22.292L337.107,23.468L337.826,24.677L338.496,25.919L339.133,27.193L339.705,28.484L340.228,29.808L340.718,31.164L341.143,32.536L341.502,33.925L341.829,35.33L342.09,36.768L342.303,38.222L342.45,39.692L342.548,41.179L342.564,42.682L342.564,215.117L342.548,216.588L342.45,218.026L342.303,219.447L342.107,220.869L341.845,222.257L341.535,223.63L341.176,224.986L340.767,226.309L340.293,227.616L339.787,228.907L339.231,230.165L338.61,231.39L337.957,232.599L337.271,233.776L336.519,234.92L335.735,236.031L334.918,237.125L334.052,238.171L333.137,239.184L332.189,240.164L331.225,241.112L330.196,242.01L329.15,242.876L328.072,243.71L326.961,244.494L325.817,245.229L324.641,245.932L323.432,246.585L322.19,247.19L320.932,247.761L319.658,248.268L318.351,248.725L317.011,249.15L315.671,249.51L314.299,249.82L312.894,250.082L311.489,250.278L310.051,250.425L308.613,250.506L307.159,250.539L229.388,250.539L229.388,76.666L299.823,76.666L299.823,6.215Z" style="fill:rgb(235,64,64);fill-rule:nonzero;"/>
            <path id="b3jIfqstCI1" serif:id="b3jIfqstCI" d="M299.823,6.215L306.097,6.215L307.6,6.248L309.087,6.329L310.557,6.476L312.012,6.689L313.449,6.95L314.854,7.277L316.26,7.653L317.616,8.078L318.972,8.551L320.295,9.074L321.586,9.662L322.86,10.283L324.102,10.953L325.311,11.672L326.487,12.44L327.631,13.257L328.758,14.106L329.837,14.989L330.882,15.92L331.879,16.9L332.859,17.897L333.791,18.943L334.689,20.037L335.539,21.148L336.339,22.292L337.107,23.468L337.826,24.677L338.496,25.919L339.133,27.193L339.705,28.484L340.228,29.808L340.718,31.164L341.143,32.536L341.502,33.925L341.829,35.33L342.09,36.768L342.303,38.222L342.45,39.692L342.548,41.179L342.564,42.682L342.564,215.117L342.548,216.588L342.45,218.026L342.303,219.447L342.107,220.869L341.845,222.257L341.535,223.63L341.176,224.986L340.767,226.309L340.293,227.616L339.787,228.907L339.231,230.165L338.61,231.39L337.957,232.599L337.271,233.776L336.519,234.92L335.735,236.031L334.918,237.125L334.052,238.171L333.137,239.184L332.189,240.164L331.225,241.112L330.196,242.01L329.15,242.876L328.072,243.71L326.961,244.494L325.817,245.229L324.641,245.932L323.432,246.585L322.19,247.19L320.932,247.761L319.658,248.268L318.351,248.725L317.011,249.15L315.671,249.51L314.299,249.82L312.894,250.082L311.489,250.278L310.051,250.425L308.613,250.506L307.159,250.539L229.388,250.539L229.388,76.666L299.823,76.666L299.823,6.215Z" style="fill-opacity:0;fill-rule:nonzero;stroke:rgb(16,14,13);stroke-width:8.17px;"/>
        </g>
        <g transform="matrix(1,0,0,1,-5,12)">
            <path id="g1Y8cbxf9A" d="M59.388,180.088L186.647,180.088L186.647,138.899C186.647,138.049 185.945,137.347 185.095,137.347L59.388,137.347L59.388,180.088Z" style="fill:rgb(235,64,64);fill-rule:nonzero;"/>
            <path id="g1Y8cbxf9A1" serif:id="g1Y8cbxf9A" d="M59.388,180.088L186.647,180.088L186.647,138.899C186.647,138.049 185.945,137.347 185.095,137.347L59.388,137.347L59.388,180.088Z" style="fill-opacity:0;fill-rule:nonzero;stroke:rgb(16,14,13);stroke-width:8.17px;"/>
        </g>
        <g id="c3SFOGMxb" transform="matrix(1,0,0,1,-5,12)">
            <path d="M150.294,17.701C130.786,17.701 114.987,33.516 114.987,53.008L114.987,90.472C114.987,96.403 122.356,99.164 126.244,94.687C139.642,79.28 171.207,43.009 185.275,26.867C188.379,23.289 185.847,17.701 181.108,17.701L150.294,17.701Z" style="fill:rgb(255,158,158);fill-rule:nonzero;"/>
        </g>
        <g id="k2nQzBusQ" transform="matrix(1,0,0,1,-5,12)">
            <path d="M179.311,144.862L73.52,144.862C70.432,144.862 67.916,147.379 67.916,150.466L67.916,162.998C67.916,167.148 71.788,170.203 75.808,169.256C89.614,166.004 124.104,157.868 179.311,144.862Z" style="fill:rgb(255,158,158);fill-rule:nonzero;"/>
        </g>
        <g id="a1q2qyOW1" transform="matrix(1,0,0,1,-5,12)">
            <path d="M84.777,128.377C89.973,128.377 94.188,124.162 94.188,118.966L94.188,101.696C94.188,99.523 91.493,98.51 90.055,100.161C85.153,105.797 73.569,119.097 68.423,125.011C67.279,126.335 68.21,128.377 69.942,128.377L84.777,128.377Z" style="fill:rgb(202,49,49);fill-rule:nonzero;"/>
        </g>
        <g id="a1d5rcAgrL" transform="matrix(1,0,0,1,-5,12)">
            <path d="M304.333,236.635C317.795,236.635 328.709,225.721 328.709,212.258L328.709,149.829C328.709,142.755 319.936,139.454 315.279,144.797C299.3,163.161 261.64,206.442 244.877,225.705C241.152,229.969 244.191,236.635 249.844,236.635L304.333,236.635Z" style="fill:rgb(202,49,49);fill-rule:nonzero;"/>
        </g>
        <g id="d78Qhfyr8" transform="matrix(1,0,0,1,-5,12)">
            <path d="M167.352,238.743C172.547,238.743 176.762,234.544 176.762,229.348L176.762,212.062C176.762,208.941 173.74,206.687 170.734,207.585C149.919,213.81 92.097,231.129 70.939,237.468C70.22,237.681 70.367,238.743 71.119,238.743L167.352,238.743Z" style="fill:rgb(202,49,49);fill-rule:nonzero;"/>
        </g>
    </g>
    <g transform="matrix(1,0,0,1,10.4076,354.024)">
        <g id="c1ZCXAhrxl">
            <g>
                <g transform="matrix(86.5934,0,0,86.5934,0,0)">
                    <path d="M0.622,0L0.461,0L0.322,-0.264L0.222,-0.264L0.222,0L0.083,0L0.083,-0.559C0.083,-0.612 0.095,-0.651 0.12,-0.676C0.145,-0.7 0.186,-0.712 0.244,-0.712L0.362,-0.712C0.433,-0.712 0.489,-0.691 0.531,-0.648C0.572,-0.604 0.593,-0.55 0.593,-0.484C0.593,-0.436 0.58,-0.395 0.556,-0.36C0.531,-0.325 0.5,-0.3 0.463,-0.287L0.622,0ZM0.353,-0.38C0.382,-0.38 0.407,-0.39 0.426,-0.411C0.444,-0.431 0.454,-0.456 0.454,-0.487C0.454,-0.517 0.445,-0.541 0.427,-0.56C0.408,-0.579 0.384,-0.588 0.353,-0.588L0.284,-0.588C0.243,-0.588 0.222,-0.567 0.222,-0.525L0.222,-0.38L0.353,-0.38Z" style="fill-rule:nonzero;"/>
                </g>
                <g transform="matrix(86.5934,0,0,86.5934,57.091,0)">
                    <path d="M0.552,0L0.3,0C0.22,0 0.164,-0.014 0.132,-0.042C0.099,-0.069 0.083,-0.118 0.083,-0.188L0.083,-0.712L0.552,-0.712L0.552,-0.588L0.222,-0.588L0.222,-0.421L0.453,-0.421L0.443,-0.297L0.222,-0.297L0.222,-0.198C0.222,-0.17 0.228,-0.151 0.241,-0.14C0.254,-0.129 0.277,-0.124 0.31,-0.124L0.552,-0.124L0.552,0Z" style="fill-rule:nonzero;"/>
                </g>
                <g transform="matrix(86.5934,0,0,86.5934,109.939,0)">
                    <path d="M0.522,0L0.31,0C0.23,0 0.172,-0.016 0.137,-0.047C0.101,-0.078 0.083,-0.128 0.083,-0.198L0.083,-0.712L0.222,-0.712L0.222,-0.198C0.222,-0.17 0.228,-0.151 0.241,-0.14C0.254,-0.129 0.277,-0.124 0.31,-0.124L0.522,-0.124L0.522,0Z" style="fill-rule:nonzero;"/>
                </g>
                <g transform="matrix(86.5934,0,0,86.5934,158.024,0)">
                    <path d="M0.623,0L0.478,0L0.438,-0.123L0.199,-0.123L0.16,0L0.015,0L0.243,-0.652C0.253,-0.675 0.264,-0.69 0.277,-0.699C0.289,-0.708 0.304,-0.712 0.322,-0.712C0.34,-0.712 0.355,-0.708 0.366,-0.7C0.377,-0.692 0.386,-0.676 0.395,-0.652L0.623,0ZM0.406,-0.24L0.322,-0.522L0.234,-0.24L0.406,-0.24Z" style="fill-rule:nonzero;"/>
                </g>
                <g transform="matrix(86.5934,0,0,86.5934,213.73,0)">
                    <path d="M0.645,0L0.473,0L0.324,-0.248L0.177,0L0.005,0L0.244,-0.365L0.02,-0.712L0.191,-0.712L0.324,-0.482L0.459,-0.712L0.629,-0.712L0.405,-0.365L0.645,0Z" style="fill-rule:nonzero;"/>
                </g>
                <g transform="matrix(86.5934,0,0,86.5934,269.608,0)">
                    <path d="M0.605,-0.389L0.605,-0.335C0.605,-0.216 0.583,-0.129 0.538,-0.075C0.493,-0.021 0.42,0.006 0.321,0.006C0.222,0.006 0.15,-0.021 0.106,-0.075C0.061,-0.129 0.039,-0.217 0.039,-0.338L0.039,-0.39C0.039,-0.501 0.062,-0.583 0.107,-0.637C0.152,-0.691 0.223,-0.718 0.321,-0.718C0.418,-0.718 0.49,-0.691 0.536,-0.636C0.582,-0.581 0.605,-0.499 0.605,-0.389ZM0.466,-0.338L0.466,-0.375C0.466,-0.439 0.458,-0.49 0.442,-0.528C0.423,-0.572 0.383,-0.594 0.322,-0.594C0.26,-0.594 0.22,-0.572 0.201,-0.528C0.186,-0.492 0.178,-0.441 0.178,-0.375L0.178,-0.338C0.178,-0.252 0.19,-0.194 0.214,-0.164C0.223,-0.151 0.237,-0.14 0.256,-0.132C0.274,-0.123 0.296,-0.118 0.322,-0.118C0.347,-0.118 0.369,-0.122 0.387,-0.131C0.405,-0.14 0.419,-0.15 0.429,-0.163C0.439,-0.176 0.447,-0.192 0.452,-0.213C0.461,-0.246 0.466,-0.287 0.466,-0.338Z" style="fill-rule:nonzero;"/>
                </g>
            </g>
        </g>
    </g>
</svg>
